<svg version="1.0" xmlns="http://www.w3.org/2000/svg" width="1365.333" height="1365.333" viewBox="0 0 1024 1024">
    <path d="M197 101.3c-11 3.3-17.6 7.3-26 15.7-5.5 5.5-8.6 9.5-11.2 15-7.4 14.9-6.8-15.2-6.8 358.8v336.7l2.1 7.5c4.3 15.7 14.9 29.2 28.5 36.3 13.8 7.1 3.5 6.7 158.7 6.7 132.9 0 139.9-.1 139.1-1.8-.4-.9-.9-14.2-1.2-29.5l-.4-27.7H212V160h310.9l.3 76.2.3 76.3 2.8 5.6c4.1 8.4 9.8 14.3 17.5 18.1l6.7 3.3 74.2.3 74.3.3v62.6l11.8.6c14.7.8 29.7 3.6 44.3 8.2 1.9.6 1.9-.7 1.9-56.7v-57.3l-99-99-99-99-177.2-.2-177.3-.2-7.5 2.2z"/>
    <path d="M282.9 423.3c-5.5 3.7-5.9 5.3-5.9 26 0 21.1.7 24.3 6.2 27.7 3.3 2 4.7 2 120.8 2s117.5 0 120.8-2c5.7-3.5 6.4-6.8 6-28.1-.3-21-.8-22.6-7.9-26.1-3.2-1.7-11-1.8-120-1.8H286.3l-3.4 2.3zM679.9 433.5c-35.4 5.8-64.5 20.7-87.5 44.7-18.7 19.7-30.4 41.9-36.5 69.7-1.8 8-2.2 14-2.6 35.8l-.5 26.3h-6.1c-13.7 0-26.5 7.9-33 20.4l-3.2 6.1v236l2.7 5.7c3.7 8 10.5 14.9 18.1 18.4l6.2 2.9h322l6.2-2.9c6.8-3.1 13.8-9.8 17.1-16.2 5.3-10.4 5.1-5.8 5.1-125.7 0-77.2-.3-112.6-1.1-115.7-4-16.6-17-27.7-33.5-28.8l-7.3-.5v-19.8c0-17.3-.4-24-2.6-38.9-3.5-24.6-19.5-56-37.9-74.5-19.6-19.8-45.6-34-74-40.4-12.5-2.8-14.2-3-29.5-3.6-9.1-.3-16.3 0-22.1 1zM721 495c28.4 7.2 51.7 28.8 60.9 56.5 3.8 11.5 5.1 22 5.1 42.2V610H611.8l.4-22.8c.4-19.2.8-23.9 2.7-30.7 9-33.4 38.4-59.2 72.6-63.8 7.5-1 25.3.2 33.5 2.3zm-1.9 190.2c24.6 12.1 33.7 39.4 21.4 64.4-3.3 6.7-10 14.2-17.8 19.9l-2.7 2 2.4 14c1.3 7.7 2.7 15.3 3 17 4.5 25.6 4.5 25.5.7 29.7l-2.9 3.3-22.6.3c-25.2.3-27.3-.1-30.3-6.2-1.5-3.2-1.4-4.5 2.1-24.8 2.1-11.7 3.9-22.4 4.1-23.8.2-1.4.6-4.3.9-6.5.6-3.9.5-4.1-4.3-7.3-6.7-4.5-11.5-10.6-15.8-19.9-3.1-6.8-3.7-9-4.1-17.3-.3-7.9-.1-10.6 1.8-16 5-14.9 15.7-25.7 30.7-31 4.7-1.6 7.7-2 15.9-1.8 9.3.3 10.7.6 17.5 4zM284.2 555c-6.6 3-7.2 5.4-7.2 27.5 0 19.5.6 23.2 4.7 26.7 1.9 1.8 25.3 2 180.5 1.8 8.3 0 9-.2 12-2.9l3.3-2.9v-44l-2.5-2.7c-5.2-5.7-1.5-5.5-97.7-5.5-85.8 0-88.9.1-93.1 2zM283.4 686.7c-5.6 2.8-5.9 3.9-6.2 27-.4 20.4-.3 21.4 1.8 24.8 1.4 2.3 3.3 3.8 5.8 4.5 2.5.8 25.2 1 70.7.8 65.2-.3 67.1-.4 69.7-2.3 5.5-4 6-6.7 5.6-28.3-.3-17.6-.5-20-2.3-22.6-3.8-5.7-2.5-5.6-75.2-5.5-57.9 0-67.2.2-69.9 1.6z"/>
</svg>
